<?xml version="1.0" encoding="utf-8"?>
<!-- Generator: Adobe Illustrator 25.2.0, SVG Export Plug-In . SVG Version: 6.00 Build 0)  -->
<svg version="1.1" xmlns="http://www.w3.org/2000/svg" xmlns:xlink="http://www.w3.org/1999/xlink" x="0px" y="0px"
	 viewBox="0 0 473.87 258.82" style="enable-background:new 0 0 473.87 258.82;" xml:space="preserve">
<style type="text/css">
	.st0{fill:none;}
	.st1{display:none;}
	.st2{font-family:'Asap-Bold';}
	.st3{font-size:25px;}
	.st4{letter-spacing:5;}
	.st5{fill:#425CC7;}
	.st6{fill:#F26178;}
	.st7{fill:#FFCD00;}
	.st8{fill:#19D3C5;}
</style>
<g id="Calque_3">
</g>
<g id="Calque_2">
</g>
<g id="Calque_1">
	<rect x="297.98" y="52.09" class="st0" width="245" height="56"/>
	<text transform="matrix(1 0 0 1.1 297.9805 70.9407)" class="st1 st2 st3 st4">(NOT SO)</text>
	<path id="XMLID_72_" class="st5" d="M42.46,163.57c-1.39-1.2-2.19-3.24-2.4-6.1L30.81,30.58c-0.21-2.86,0.29-4.99,1.49-6.38
		c1.2-1.39,3.24-2.19,6.1-2.4l71.83-5.24c2.18-0.16,3.81,0.55,4.89,2.11c1.07,1.57,1.74,4.13,2,7.67l0.46,6.34
		c0.26,3.55-0.03,6.18-0.87,7.88c-0.84,1.71-2.35,2.64-4.53,2.8l-48.5,3.54l2.16,29.68l42.98-3.13c2.18-0.16,3.81,0.54,4.89,2.11
		c1.07,1.57,1.74,4.13,2,7.67l0.46,6.34c0.26,3.55-0.03,6.18-0.87,7.88c-0.84,1.71-2.35,2.64-4.53,2.8l-42.98,3.13l2.42,33.15
		l48.71-3.55c2.18-0.16,3.81,0.54,4.89,2.11c1.07,1.57,1.74,4.13,2,7.67l0.46,6.34c0.26,3.55-0.03,6.17-0.87,7.88
		c-0.84,1.71-2.35,2.64-4.53,2.8l-72.04,5.25C45.98,165.26,43.85,164.77,42.46,163.57z"/>
	<path id="XMLID_71_" class="st6" d="M191.2,208.31l-39.39-133.5c-0.48-1.93-0.7-3.17-0.68-3.72c0.11-3.01,4.34-4.36,12.68-4.05
		l6.77,0.25c6.83,0.25,10.79,2.39,11.88,6.4l24.38,89.82l1.99,7.26l0.82,0.03l2.52-7.09l31.8-87.73c1.51-3.91,5.62-5.75,12.32-5.5
		l6.36,0.24c8.2,0.31,12.25,1.96,12.14,4.97c-0.04,0.96-0.29,2.18-0.75,3.67l-49.19,130.2c-1.06,2.84-4.95,4.13-11.64,3.88
		l-10.66-0.4C195.82,212.79,192.05,211.21,191.2,208.31z"/>
	<path id="XMLID_70_" class="st7" d="M303.11,176.05l-6.44-131.17c-0.22-4.51,3.77-6.96,11.97-7.37l7.17-0.35
		c8.2-0.4,12.41,1.65,12.63,6.16l6.44,131.17c0.22,4.51-3.76,6.96-11.96,7.37l-7.17,0.35C307.54,182.61,303.33,180.55,303.11,176.05
		z"/>
	<path id="XMLID_69_" class="st8" d="M361.45,238.86c-1.21-1.38-1.72-3.51-1.52-6.38l8.73-128.98c0.3-4.37,4.54-6.27,12.73-5.72
		l6.96,0.47c8.19,0.55,12.13,3.02,11.84,7.38l-7.47,110.35l44.22,2.99c2.18,0.15,3.7,1.07,4.54,2.77c0.84,1.7,1.15,4.33,0.91,7.88
		l-0.43,6.35c-0.24,3.55-0.9,6.11-1.96,7.68c-1.07,1.57-2.69,2.29-4.87,2.14l-67.56-4.57C364.7,241.03,362.66,240.24,361.45,238.86z
		"/>
</g>
</svg>
